# xmcd
#
# Track frame offsets: 
#        150
#        27632
#        55307
#        84857
#        103547
#        121167
#        143105
#        157482
#        181852
#        197902
#
# Disc length: 2903 seconds
#
# Revision: 0
# Processed by: cddbd v1.5.2PL0 Copyright (c) Steve Scherf et al.
# Submitted via: ExactAudioCopy v1.0b3
#
DISCID=880b550a
DTITLE=Tuan Vu - Da Vu Tinh Dau
DYEAR=1990
DGENRE=
TTITLE0=Tuan Vu, Huong Lan - Nguoi chet tro ve
TTITLE1=Tinh van chua yen
TTITLE2=Tuan Vu, Son Tuyen - Toi van nho
TTITLE3=Chi mot minh thoi
TTITLE4=Mua dem doc hanh
TTITLE5=Tuan Vu, Bang Chau - Cho nguoi
TTITLE6=Thuong qua Viet Nam
TTITLE7=Tuan Vu, Giao Linh - Tron doi thuong nhau
TTITLE8=Nguoi xa toi
TTITLE9=Trong con hy vong
EXTD=
EXTT0=
EXTT1=
EXTT2=
EXTT3=
EXTT4=
EXTT5=
EXTT6=
EXTT7=
EXTT8=
EXTT9=
PLAYORDER=
